<svg xmlns="http://www.w3.org/2000/svg" viewBox="0 0 316 96" role="img" aria-label="SADA logo">
  <defs>
    <linearGradient id="sada-logo-word" x1="104" y1="18" x2="310" y2="78" gradientUnits="userSpaceOnUse">
      <stop offset="0" stop-color="#F8FAFC"/>
      <stop offset="0.45" stop-color="#CFFAFE"/>
      <stop offset="1" stop-color="#DDD6FE"/>
    </linearGradient>
  </defs>
  <image href="/portfolio/sada/sada-mark.svg" x="0" y="0" width="96" height="96"/>
  <g fill="url(#sada-logo-word)">
    <path d="M123.3 66.4c-10.2 0-18-3.8-22.9-9.1l7.4-8.9c4.1 4.1 9.8 6.9 16.1 6.9 5.3 0 8.1-1.8 8.1-4.8 0-3.3-3.7-4.3-9.7-5.7l-8.4-1.9c-7.2-1.7-14-7.4-14-16.4 0-9.9 8.9-17.8 21.4-17.8 7.7 0 15.3 2.9 20.8 8.5l-6.6 8.3c-4.2-3.4-8.4-5.4-14.2-5.4-4.4 0-7.2 1.6-7.2 4.6 0 3.1 4.1 4.3 10.4 5.7l8.2 1.9c8.5 2 13.6 7.5 13.6 16.2 0 9.9-8.2 17.9-23 17.9Z"/>
    <path d="M151.5 65.3 169.9 9.8h15.7L204 65.3h-14.1l-3.6-12.9h-17.6l-3.6 12.9h-13.6Zm19.9-22.9h12.2l-1.4-5.1c-1.6-5.5-3.1-12.2-4.6-18h-.3c-1.4 5.9-2.9 12.5-4.5 18l-1.4 5.1Z"/>
    <path d="M211.2 65.3V9.8h15.8c16.9 0 28.2 8.4 28.2 27.4 0 19.1-11.3 28.1-27.4 28.1h-16.6Zm13.4-10.8h1.6c8.9 0 15.3-4.1 15.3-17.3 0-13.1-6.4-16.6-15.3-16.6h-1.6v33.9Z"/>
    <path d="M260.9 65.3 279.3 9.8H295l18.4 55.5h-14.1l-3.6-12.9h-17.6l-3.6 12.9h-13.6Zm19.9-22.9H293l-1.4-5.1c-1.6-5.5-3.1-12.2-4.6-18h-.3c-1.4 5.9-2.9 12.5-4.5 18l-1.4 5.1Z"/>
  </g>
  <text x="104" y="84" fill="#94A3B8" font-family="Inter, Arial, sans-serif" font-size="12" letter-spacing="3">ARCHITECTURE INTELLIGENCE</text>
</svg>
